<?xml version="1.0" encoding="UTF-8" standalone="no"?>
<!-- Created with Inkscape (http://www.inkscape.org/) -->

<svg
   xmlns:dc="http://purl.org/dc/elements/1.1/"
   xmlns:cc="http://creativecommons.org/ns#"
   xmlns:rdf="http://www.w3.org/1999/02/22-rdf-syntax-ns#"
   xmlns:svg="http://www.w3.org/2000/svg"
   xmlns="http://www.w3.org/2000/svg"
   xmlns:sodipodi="http://sodipodi.sourceforge.net/DTD/sodipodi-0.dtd"
   xmlns:inkscape="http://www.inkscape.org/namespaces/inkscape"
   width="1509.16"
   height="509.16"
   id="svg2"
   version="1.1"
   inkscape:version="0.48.4 r9939"
   sodipodi:docname="airstate_full.svg">
  <defs
     id="defs4" />
  <sodipodi:namedview
     id="base"
     pagecolor="#ffffff"
     bordercolor="#666666"
     borderopacity="1.0"
     inkscape:pageopacity="0.0"
     inkscape:pageshadow="2"
     inkscape:zoom="0.49497475"
     inkscape:cx="515.81924"
     inkscape:cy="42.252442"
     inkscape:document-units="px"
     inkscape:current-layer="text3755"
     showgrid="false"
     fit-margin-top="0"
     fit-margin-left="0"
     fit-margin-right="0"
     fit-margin-bottom="0"
     inkscape:window-width="1846"
     inkscape:window-height="1058"
     inkscape:window-x="66"
     inkscape:window-y="-8"
     inkscape:window-maximized="1" />
  <metadata
     id="metadata7">
    <rdf:RDF>
      <cc:Work
         rdf:about="">
        <dc:format>image/svg+xml</dc:format>
        <dc:type
           rdf:resource="http://purl.org/dc/dcmitype/StillImage" />
        <dc:title />
      </cc:Work>
    </rdf:RDF>
  </metadata>
  <g
     inkscape:label="Ebene 1"
     inkscape:groupmode="layer"
     id="layer1"
     transform="translate(-124.21875,-358.37125)">
    <path
       sodipodi:type="arc"
       style="fill:#009fda;fill-opacity:1;stroke:#ffffff;stroke-width:2.05200005;stroke-miterlimit:4;stroke-opacity:1;stroke-dasharray:none"
       id="path2985"
       sodipodi:cx="378.80719"
       sodipodi:cy="612.9458"
       sodipodi:rx="253.54829"
       sodipodi:ry="253.54829"
       d="m 632.35548,612.9458 c 0,140.03086 -113.51743,253.54829 -253.54829,253.54829 -140.03086,0 -253.54829,-113.51743 -253.54829,-253.54829 0,-140.03086 113.51743,-253.54829 253.54829,-253.54829 140.03086,0 253.54829,113.51743 253.54829,253.54829 z"
       inkscape:export-filename="C:\Temp\favicon.png"
       inkscape:export-xdpi="2.8282084"
       inkscape:export-ydpi="2.8282084" />
    <g
       style="font-size:459.75323486px;font-style:normal;font-variant:normal;font-weight:bold;font-stretch:normal;line-height:125%;letter-spacing:0px;word-spacing:0px;fill:#ffffff;fill-opacity:1;stroke:none;font-family:Gill Sans Ultra Bold;-inkscape-font-specification:Gill Sans Ultra Bold"
       id="text3755">
      <path
         d="m 311.14432,762.9278 -157.33865,0 117.95488,-344.85702 219.17131,0 118.02503,344.85702 -157.18431,0 -19.36217,-56.78166 -101.88989,0 z m 47.77404,-145.00579 45.15033,0 -22.61726,-74.4321 z"
         id="path2998"
         inkscape:connector-curvature="0" />
      <g
         style="font-size:335.16894531000008000px;font-family:Poplar Std;-inkscape-font-specification:Poplar Std Bold;fill:#009fda;fill-opacity:1"
         id="text2993">
        <path
           d="m 708.69503,513.44562 c -0.014,-0.87263 -0.32126,-1.64071 -0.9217,-2.30426 -0.60057,-0.66315 -1.41055,-1.01228 -2.42995,-1.04739 l -47.59337,0 c -1.01948,0.0211 -1.82946,0.39821 -2.42996,1.13118 -0.60051,0.73337 -0.90774,1.69697 -0.92169,2.8908 l 0,194.06032 c 0.0279,0.71223 0.30722,1.38256 0.83791,2.01099 0.53067,0.62843 1.14513,0.96359 1.84341,1.00549 l 49.2692,0 c 0.68423,-0.0279 1.24284,-0.30723 1.67582,-0.83792 0.43286,-0.53068 0.65631,-1.14514 0.67033,-1.8434 l 0,-195.06581 z m -3.35165,-60.32964 c -0.042,-0.84463 -0.37711,-1.501 -1.00549,-1.96909 -0.62849,-0.46758 -1.29882,-0.70498 -2.01099,-0.71222 l -41.22525,0 c -0.87283,0.0491 -1.64092,0.45414 -2.30426,1.21498 -0.66336,0.76136 -1.01249,1.5853 -1.04738,2.47183 l 0,41.56041 c 0.0349,1.0476 0.38403,1.9693 1.04739,2.76511 0.66333,0.79622 1.43142,1.21518 2.30425,1.25687 l 40.89009,0 c 1.0194,-0.0277 1.82938,-0.39082 2.42994,-1.08929 0.60044,-0.69805 0.90768,-1.56389 0.9217,-2.59752 l 0,-42.90108 z"
           style="fill:#009fda;fill-opacity:1"
           id="path2999" />
        <path
           d="m 721.82493,708.51143 c 0.014,0.8449 0.2374,1.50126 0.67033,1.96909 0.43291,0.46783 0.99152,0.70524 1.67582,0.71223 l 48.93404,0 c 0.85879,-0.021 1.57101,-0.31422 2.13666,-0.87981 0.56554,-0.56559 0.85881,-1.27781 0.87982,-2.13667 l 0,-108.92851 c -0.0769,-13.38551 1.75257,-22.81201 5.48832,-28.27952 3.73561,-5.46723 9.8384,-8.10664 18.30837,-7.91826 0.83083,-0.0138 1.43133,-0.23726 1.8015,-0.67033 0.36999,-0.43277 0.55154,-0.99138 0.54465,-1.67582 l 0,-48.26371 c -0.021,-0.68409 -0.23051,-1.2427 -0.62843,-1.67582 -0.3981,-0.43272 -0.85895,-0.65616 -1.38256,-0.67033 -5.21608,-0.15342 -9.61512,0.2376 -13.19711,1.17307 -3.58214,0.93587 -6.22156,3.33788 -7.91826,7.20605 -0.67039,1.62015 -1.34072,2.4022 -2.01099,2.34615 -0.85892,-0.4467 -1.82252,-2.23424 -2.8908,-5.36263 -1.06839,-3.12801 -2.11578,-4.91555 -3.14216,-5.36264 l -47.25821,0 c -1.34067,0.0561 -2.011,0.94984 -2.01099,2.68132 l 0,195.73614 z"
           style="fill:#009fda;fill-opacity:1"
           id="path3001" />
        <path
           d="m 952.90117,538.58296 c 1.34051,-0.0347 2.34601,-0.46765 3.01648,-1.29876 0.67018,-0.83075 1.00535,-1.85021 1.0055,-3.05838 -0.22359,-20.57751 -6.73137,-38.07588 -19.52335,-52.49516 -12.79223,-14.41882 -30.52801,-21.94605 -53.20738,-22.58171 -22.58177,0.83816 -39.92653,8.46315 -52.03432,22.87498 -12.10783,14.41229 -18.22458,30.58397 -18.35025,48.51508 -0.007,11.59128 2.77209,23.18238 8.33722,34.77334 5.56511,11.59124 13.95818,22.00927 25.17924,31.2541 11.54218,9.11937 21.22005,17.19124 29.03363,24.21564 7.81345,7.02457 11.87732,12.58271 12.19162,16.67444 -0.028,3.81955 -0.72627,6.57068 -2.09478,8.25342 -1.36867,1.68287 -3.24,2.50682 -5.614,2.47185 -4.06394,-0.32114 -7.41558,-3.28176 -10.05494,-8.88187 -2.63949,-5.59997 -4.31531,-11.91223 -5.02747,-18.9368 -0.33522,-2.96053 -1.67588,-4.4129 -4.02198,-4.35714 l -46.25272,2.34616 c -1.34066,0.035 -2.34615,0.38413 -3.01648,1.04739 -0.67033,0.66344 -1.0055,1.43152 -1.00549,2.30425 -0.0838,27.23219 5.94917,49.01787 18.09889,65.35711 12.14968,16.33928 30.91888,24.71838 56.30766,25.13734 22.15567,-0.55861 39.43059,-8.40704 51.82482,-23.54532 12.39397,-15.13823 18.69226,-34.21466 18.89491,-57.22935 -0.23057,-12.58255 -3.87548,-24.45296 -10.93474,-35.61125 -7.05955,-11.15807 -16.15088,-20.51474 -27.27402,-28.07003 -10.29245,-6.86375 -18.78328,-13.32962 -25.47252,-19.39766 -6.6894,-6.06771 -10.15277,-11.77946 -10.3901,-17.13529 -7e-5,-1.71754 0.41889,-3.14199 1.25687,-4.27335 0.83783,-1.131 2.0947,-1.71753 3.7706,-1.75961 4.69222,1.9e-4 8.04386,4.02216 10.05494,12.06593 0.33507,1.32686 0.83781,2.27649 1.50823,2.84889 0.67024,0.57274 1.50816,0.85204 2.51374,0.83792 l 51.28019,-2.34616 z"
           style="fill:#009fda;fill-opacity:1"
           id="path3003" />
        <path
           d="m 973.31155,658.5719 c 0.1955,19.78871 3.49129,33.58631 9.88735,41.39283 6.39603,7.80654 14.71928,11.54921 24.9698,11.22802 16.3811,-0.98454 26.3522,-7.31077 29.9134,-18.9787 3.5611,-11.66789 4.9855,-22.77021 4.2734,-33.30698 0.1884,-0.96355 -0.5238,-1.55009 -2.1367,-1.75963 -1.6131,-0.20943 -5.258,-0.29321 -10.9348,-0.25136 -0.5237,-0.0279 -0.9846,-0.30718 -1.3825,-0.83792 -0.3981,-0.53062 -0.6076,-1.14509 -0.6284,-1.8434 l 0,-88.1483 c -0.1607,-1.28464 0.4957,-2.06669 1.9691,-2.34615 1.4732,-0.27916 4.7271,-0.39088 9.7616,-0.33516 0.6842,-0.0138 1.2428,-0.23726 1.6758,-0.67033 0.4329,-0.43278 0.6563,-0.99138 0.6704,-1.67583 l 0,-48.59887 c 0.1745,-1.124 -0.426,-1.80829 -1.8015,-2.05288 -1.3757,-0.24419 -4.5737,-0.34195 -9.5941,-0.29327 -1.7318,2e-4 -2.6256,-1.00529 -2.6813,-3.01648 l 0,-28.15383 c 0.07,-1.1519 -0.07,-1.94791 -0.419,-2.38805 -0.3492,-0.43967 -1.3268,-0.64915 -2.9327,-0.62843 l -48.2637,0 c -0.6843,0.0142 -1.24291,0.23764 -1.67582,0.67033 -0.43293,0.43315 -0.65638,0.99176 -0.67033,1.67582 l 0,29.49449 c 0.13266,1.1244 -0.30026,1.80869 -1.29876,2.05288 -0.99852,0.24459 -3.35864,0.34234 -7.08035,0.29327 -0.34914,0.0211 -0.65637,0.23063 -0.92171,0.62844 -0.26535,0.3982 -0.405,0.85905 -0.41895,1.38255 l 0,48.93403 c -0.1187,1.12435 0.28629,1.80865 1.21498,2.05289 0.92868,0.24453 3.09328,0.34229 6.4938,0.29327 0.67032,0.0141 1.17307,0.23755 1.50824,0.67033 0.33515,0.43306 0.50273,0.99167 0.50275,1.67582 l 0,92.8406 z"
           style="fill:#009fda;fill-opacity:1"
           id="path3005" />
        <path
           d="m 1098.9994,580.14338 c 0.8588,-0.007 1.571,-0.24427 2.1366,-0.71223 0.5656,-0.46771 0.8588,-1.12407 0.8798,-1.96909 -0.1117,-7.47124 0.1117,-12.3032 0.6704,-14.49588 0.5585,-2.19238 2.1226,-3.16994 4.6923,-2.93268 1.5291,1.5e-4 2.7441,0.58669 3.6449,1.75962 0.9007,1.17322 1.3615,2.93283 1.3826,5.27884 0.4538,5.55829 -0.7892,10.02714 -3.7288,13.40658 -2.9397,3.37971 -10.2993,7.5134 -22.0789,12.40109 -9.5732,3.72882 -17.9104,9.42662 -25.0117,17.0934 -7.1013,7.66699 -10.83,18.05708 -11.1861,31.17031 l 0,24.80218 c 0.5726,16.54879 4.6225,28.27954 12.1497,35.19229 7.5272,6.91277 15.0964,10.26442 22.7074,10.05494 5.8793,-0.1606 10.7951,-1.43143 14.7473,-3.8125 3.952,-2.38106 6.8568,-4.90876 8.7142,-7.5831 1.0125,-1.31271 1.8364,-2.20648 2.4719,-2.68132 0.6353,-0.4748 1.0403,-0.69825 1.215,-0.67032 0.3281,-0.0209 0.761,0.18855 1.2987,0.62843 0.5376,0.43992 1.2219,1.23593 2.0529,2.38805 2.3391,3.90327 5.4533,6.98958 9.3427,9.25891 3.8892,2.26934 9.601,3.42846 17.1353,3.47734 9.594,-0.46783 17.4703,-4.39205 23.6291,-11.77266 6.1585,-7.38059 9.3426,-15.41057 9.5522,-24.08995 l 0,-20.78021 c -0.014,-0.6982 -0.2375,-1.31267 -0.6703,-1.84341 -0.4331,-0.53062 -0.9917,-0.80993 -1.6758,-0.83791 -3.5753,0.0559 -5.8935,-0.0558 -6.9547,-0.33516 -1.0615,-0.27925 -1.5363,-1.0613 -1.4245,-2.34615 l 0,-90.82962 c -0.084,-13.49021 -5.0276,-24.96959 -14.831,-34.43817 -9.8037,-9.46821 -23.9644,-14.41188 -42.4821,-14.83103 -17.5543,0.4401 -31.1285,5.50946 -40.7225,15.20809 -9.5941,9.69901 -14.454,21.38786 -14.5797,35.06661 -0.049,7.61815 0.049,12.49199 0.2933,14.62154 0.2444,2.12983 0.9287,3.0655 2.0529,2.80702 l 44.5769,2.34615 z m 13.4066,77.42303 c -0.056,1.99707 -0.6146,3.44945 -1.6759,4.35714 -1.0614,0.90778 -2.2903,1.35467 -3.6868,1.34066 -1.3966,0.014 -2.6255,-0.43287 -3.6868,-1.34066 -1.0614,-0.90769 -1.62,-2.36007 -1.6758,-4.35714 l 0,-24.80218 c 0.2373,-3.6588 1.4383,-6.31219 3.603,-7.96017 2.1645,-1.64781 3.8683,-2.45778 5.1113,-2.42994 1.3406,0.39111 2.0109,1.28488 2.011,2.68132 l 0,32.51097 z"
           style="fill:#009fda;fill-opacity:1"
           id="path3007" />
        <path
           d="m 1188.6838,658.5719 c 0.1955,19.78871 3.4913,33.58631 9.8874,41.39283 6.396,7.80654 14.7192,11.54921 24.9697,11.22802 16.3811,-0.98454 26.3523,-7.31077 29.9135,-18.9787 3.561,-11.66789 4.9855,-22.77021 4.2733,-33.30698 0.1885,-0.96355 -0.5238,-1.55009 -2.1367,-1.75963 -1.613,-0.20943 -5.2579,-0.29321 -10.9347,-0.25136 -0.5238,-0.0279 -0.9846,-0.30718 -1.3826,-0.83792 -0.398,-0.53062 -0.6075,-1.14509 -0.6284,-1.8434 l 0,-88.1483 c -0.1607,-1.28464 0.4957,-2.06669 1.9691,-2.34615 1.4733,-0.27916 4.7272,-0.39088 9.7617,-0.33516 0.6842,-0.0138 1.2428,-0.23726 1.6758,-0.67033 0.4328,-0.43278 0.6563,-0.99138 0.6703,-1.67583 l 0,-48.59887 c 0.1745,-1.124 -0.426,-1.80829 -1.8015,-2.05288 -1.3756,-0.24419 -4.5737,-0.34195 -9.5941,-0.29327 -1.7317,2e-4 -2.6255,-1.00529 -2.6813,-3.01648 l 0,-28.15383 c 0.07,-1.1519 -0.07,-1.94791 -0.4189,-2.38805 -0.3492,-0.43967 -1.3268,-0.64915 -2.9327,-0.62843 l -48.2637,0 c -0.6843,0.0142 -1.243,0.23764 -1.6759,0.67033 -0.4329,0.43315 -0.6563,0.99176 -0.6703,1.67582 l 0,29.49449 c 0.1327,1.1244 -0.3003,1.80869 -1.2988,2.05288 -0.9985,0.24459 -3.3586,0.34234 -7.0803,0.29327 -0.3491,0.0211 -0.6564,0.23063 -0.9217,0.62844 -0.2654,0.3982 -0.405,0.85905 -0.419,1.38255 l 0,48.93403 c -0.1187,1.12435 0.2863,1.80865 1.215,2.05289 0.9287,0.24453 3.0933,0.34229 6.4938,0.29327 0.6703,0.0141 1.1731,0.23755 1.5083,0.67033 0.3351,0.43306 0.5027,0.99167 0.5027,1.67582 l 0,92.8406 z"
           style="fill:#009fda;fill-opacity:1"
           id="path3009" />
        <path
           d="m 1265.7727,647.51147 c 0.1048,19.36976 5.0066,34.75939 14.7054,46.16893 9.6988,11.40957 23.5662,17.24701 41.6023,17.51235 16.004,0.3631 29.9134,-3.54715 41.728,-11.73076 11.8144,-8.18359 18.015,-22.8191 18.6016,-43.90657 l 0,-21.45054 c -0.014,-1.0124 -0.3213,-1.83635 -0.9217,-2.47184 -0.6006,-0.63534 -1.4106,-1.04033 -2.4299,-1.21497 l -43.2362,-2.34615 c -1.0056,0.028 -1.7597,0.30731 -2.2624,0.83791 -0.5028,0.53075 -0.7542,1.14522 -0.7541,1.84341 l 0,20.44504 c -0.077,2.49285 -0.6774,4.29435 -1.8015,5.40453 -1.1243,1.11028 -2.3113,1.65492 -3.5612,1.63393 -1.5432,0.028 -2.814,-0.53062 -3.8125,-1.67583 -0.9985,-1.14509 -1.5152,-3.04436 -1.5501,-5.69779 l 0,-52.62085 c -10e-5,-1.73157 0.6703,-2.62535 2.011,-2.68132 l 55.9725,0 c 0.8587,-0.0208 1.5709,-0.3141 2.1367,-0.87981 0.5654,-0.56547 0.8587,-1.27769 0.8798,-2.13667 l 0,-20.44504 c -0.1189,-16.9536 -5.3279,-31.3936 -15.6271,-43.32004 -10.2994,-11.92608 -24.9768,-18.15455 -44.0322,-18.68542 -14.2795,-0.20927 -27.2811,3.89649 -39.0048,12.31731 -11.7238,8.42119 -17.9383,22.41429 -18.6436,41.97936 l 0,83.12083 z m 56.3077,-88.48346 c 0.042,-2.49264 0.5446,-4.29415 1.5082,-5.40454 0.9636,-1.11007 2.1367,-1.65471 3.5193,-1.63392 2.5835,-0.34897 4.2034,0.93583 4.8599,3.85439 0.6562,2.91887 0.9356,9.5663 0.8379,19.9423 0.1186,0.80313 -0.3702,1.29191 -1.4664,1.46634 -1.0963,0.17469 -3.5123,0.24452 -7.2479,0.20948 -0.5238,-0.007 -0.9846,-0.16047 -1.3826,-0.46085 -0.398,-0.30012 -0.6075,-0.70511 -0.6284,-1.21497 l 0,-16.75823 z"
           style="fill:#009fda;fill-opacity:1"
           id="path3011" />
      </g>
      <text
         xml:space="preserve"
         style="font-size:64px;font-style:normal;font-variant:normal;font-weight:normal;font-stretch:normal;line-height:125%;letter-spacing:0px;word-spacing:0px;fill:#1a1a1a;fill-opacity:1;stroke:none;font-family:Verdana;-inkscape-font-specification:Verdana"
         x="653.5387"
         y="788.73938"
         id="text3001"
         sodipodi:linespacing="125%"><tspan
           sodipodi:role="line"
           id="tspan3003"
           x="653.5387"
           y="788.73938"
           style="font-size:64px;font-weight:bold;line-height:87.00000048%;-inkscape-font-specification:Verdana Bold">The Arduino based </tspan><tspan
           sodipodi:role="line"
           x="653.5387"
           y="844.41937"
           id="tspan3005"
           style="font-size:64px;font-weight:bold;line-height:87.00000048%;-inkscape-font-specification:Verdana Bold">environment control</tspan></text>
    </g>
  </g>
</svg>
