<?xml version="1.0" encoding="utf-8"?>
<!-- Generator: Adobe Illustrator 16.0.3, SVG Export Plug-In . SVG Version: 6.00 Build 0)  -->
<!DOCTYPE svg PUBLIC "-//W3C//DTD SVG 1.1//EN" "http://www.w3.org/Graphics/SVG/1.1/DTD/svg11.dtd">
<svg version="1.1"
	 id="svg2" xmlns:inkscape="http://www.inkscape.org/namespaces/inkscape" xmlns:sodipodi="http://sodipodi.sourceforge.net/DTD/sodipodi-0.dtd" xmlns:cc="http://creativecommons.org/ns#" xmlns:dc="http://purl.org/dc/elements/1.1/" xmlns:rdf="http://www.w3.org/1999/02/22-rdf-syntax-ns#" xmlns:svg="http://www.w3.org/2000/svg" sodipodi:docname="airstate_full.svg" inkscape:version="0.48.4 r9939"
	 xmlns="http://www.w3.org/2000/svg" xmlns:xlink="http://www.w3.org/1999/xlink" x="0px" y="0px" width="1509.16px"
	 height="509.16px" viewBox="0 0 1509.16 509.16" enable-background="new 0 0 1509.16 509.16" xml:space="preserve">
<sodipodi:namedview  pagecolor="#ffffff" bordercolor="#666666" id="base" inkscape:zoom="0.49497475" inkscape:cx="515.81924" borderopacity="1.0" fit-margin-left="0" showgrid="false" fit-margin-top="0" inkscape:cy="42.252442" inkscape:window-maximized="1" inkscape:window-y="-8" inkscape:window-x="66" inkscape:window-height="1058" inkscape:pageshadow="2" inkscape:window-width="1846" inkscape:pageopacity="0.0" fit-margin-bottom="0" inkscape:current-layer="text3755" inkscape:document-units="px" fit-margin-right="0">
	</sodipodi:namedview>
<path id="path2985" sodipodi:cx="378.80719" sodipodi:ry="253.54829" sodipodi:rx="253.54829" sodipodi:type="arc" sodipodi:cy="612.9458" inkscape:export-ydpi="2.8282084" inkscape:export-xdpi="2.8282084" inkscape:export-filename="C:\Temp\favicon.png" fill="#FFFFFF" stroke="#FFFFFF" stroke-width="2.052" d="
	M508.137,254.575c0,140.03-113.518,253.548-253.548,253.548c-140.03,0-253.549-113.518-253.549-253.548
	C1.04,114.544,114.558,1.026,254.588,1.026C394.618,1.026,508.137,114.544,508.137,254.575z"/>
<path id="path2998" inkscape:connector-curvature="0" fill="#009FDA" d="M186.926,404.556H29.587L147.542,59.7h219.171
	l118.025,344.856H327.554l-19.361-56.781H206.302L186.926,404.556z M234.7,259.552h45.15l-22.617-74.433L234.7,259.552z"/>
<g id="text2993">
	<path id="path2999" fill="#FFFFFF" d="M584.477,155.074c-0.015-0.872-0.32-1.641-0.922-2.304c-0.601-0.663-1.411-1.014-2.43-1.048
		h-47.594c-1.021,0.021-1.829,0.397-2.431,1.132c-0.601,0.733-0.907,1.695-0.922,2.891v194.062c0.028,0.712,0.309,1.382,0.838,2.011
		c0.53,0.628,1.146,0.964,1.845,1.006h49.269c0.686-0.028,1.243-0.308,1.676-0.838c0.435-0.531,0.656-1.146,0.672-1.844
		L584.477,155.074L584.477,155.074z M581.125,94.745c-0.042-0.845-0.378-1.501-1.006-1.969c-0.629-0.468-1.299-0.705-2.011-0.713
		h-41.227c-0.873,0.05-1.641,0.454-2.304,1.215c-0.664,0.762-1.013,1.586-1.048,2.473v41.561c0.035,1.048,0.384,1.97,1.048,2.766
		c0.663,0.796,1.431,1.215,2.304,1.257h40.892c1.019-0.026,1.828-0.391,2.43-1.09c0.601-0.697,0.907-1.563,0.922-2.597V94.745z"/>
	<path id="path3001" fill="#FFFFFF" d="M597.606,350.14c0.014,0.845,0.236,1.501,0.67,1.969s0.991,0.705,1.676,0.713h48.935
		c0.858-0.021,1.57-0.314,2.138-0.88c0.564-0.566,0.857-1.278,0.88-2.137V240.877c-0.077-13.386,1.752-22.813,5.487-28.278
		c3.735-5.469,9.839-8.107,18.309-7.919c0.831-0.015,1.432-0.237,1.802-0.671c0.37-0.433,0.552-0.99,0.545-1.676v-48.264
		c-0.021-0.685-0.229-1.243-0.629-1.676c-0.397-0.434-0.858-0.656-1.382-0.671c-5.217-0.153-9.615,0.237-13.197,1.174
		c-3.582,0.936-6.222,3.337-7.919,7.205c-0.67,1.621-1.34,2.401-2.011,2.347c-0.858-0.447-1.822-2.234-2.892-5.362
		c-1.068-3.128-2.115-4.916-3.142-5.362h-47.259c-1.341,0.057-2.011,0.949-2.011,2.682V350.14L597.606,350.14z"/>
	<path id="path3003" fill="#FFFFFF" d="M828.683,180.212c1.341-0.033,2.347-0.468,3.018-1.299c0.67-0.831,1.005-1.85,1.005-3.059
		c-0.224-20.577-6.731-38.075-19.523-52.495c-12.792-14.418-30.526-21.945-53.207-22.581c-22.582,0.838-39.927,8.463-52.033,22.875
		c-12.108,14.412-18.226,30.584-18.352,48.515c-0.007,11.593,2.772,23.184,8.338,34.773c5.564,11.591,13.958,22.01,25.18,31.254
		c11.542,9.119,21.22,17.191,29.033,24.216s11.877,12.583,12.191,16.675c-0.028,3.819-0.728,6.57-2.095,8.253
		c-1.369,1.684-3.24,2.508-5.614,2.473c-4.064-0.321-7.416-3.281-10.055-8.882c-2.641-5.601-4.315-11.912-5.027-18.938
		c-0.336-2.961-1.677-4.413-4.022-4.357l-46.253,2.348c-1.341,0.035-2.346,0.384-3.017,1.047c-0.67,0.664-1.005,1.432-1.005,2.305
		c-0.084,27.232,5.949,49.019,18.099,65.356c12.149,16.34,30.919,24.719,56.309,25.138c22.155-0.559,39.431-8.407,51.824-23.545
		c12.395-15.139,18.692-34.215,18.896-57.229c-0.23-12.583-3.875-24.453-10.935-35.611c-7.061-11.158-16.151-20.516-27.274-28.07
		c-10.292-6.863-18.783-13.329-25.473-19.396s-10.152-11.779-10.391-17.137c0-1.717,0.419-3.142,1.257-4.272
		s2.096-1.717,3.771-1.759c4.691,0,8.044,4.021,10.055,12.064c0.336,1.327,0.838,2.276,1.509,2.85
		c0.67,0.572,1.509,0.853,2.515,0.838L828.683,180.212L828.683,180.212z"/>
	<path id="path3005" fill="#FFFFFF" d="M849.093,300.201c0.195,19.788,3.491,33.586,9.889,41.394
		c6.396,7.807,14.719,11.549,24.97,11.229c16.381-0.985,26.352-7.312,29.913-18.979c3.561-11.667,4.984-22.771,4.272-33.308
		c0.188-0.964-0.522-1.55-2.137-1.76c-1.613-0.209-5.258-0.293-10.935-0.251c-0.523-0.028-0.984-0.309-1.384-0.838
		c-0.397-0.531-0.606-1.146-0.628-1.844v-88.148c-0.161-1.284,0.495-2.066,1.97-2.346c1.474-0.28,4.728-0.392,9.762-0.335
		c0.685-0.016,1.243-0.237,1.676-0.672c0.433-0.433,0.656-0.99,0.67-1.676v-48.599c0.175-1.124-0.426-1.81-1.801-2.053
		c-1.376-0.244-4.574-0.343-9.595-0.294c-1.731,0.001-2.625-1.006-2.682-3.017v-28.154c0.069-1.151-0.069-1.947-0.419-2.388
		c-0.35-0.439-1.327-0.648-2.933-0.629h-48.264c-0.686,0.015-1.243,0.237-1.678,0.671c-0.433,0.434-0.655,0.991-0.67,1.676v29.494
		c0.133,1.124-0.3,1.81-1.299,2.054c-0.998,0.244-3.357,0.343-7.08,0.293c-0.35,0.021-0.656,0.23-0.922,0.629
		c-0.266,0.397-0.405,0.858-0.419,1.383v48.934c-0.118,1.124,0.286,1.81,1.215,2.054s3.094,0.343,6.494,0.294
		c0.67,0.014,1.173,0.236,1.508,0.67c0.335,0.433,0.503,0.99,0.503,1.676v92.84H849.093z"/>
	<path id="path3007" fill="#FFFFFF" d="M974.78,221.772c0.858-0.007,1.57-0.244,2.137-0.712c0.566-0.469,0.859-1.124,0.88-1.971
		c-0.11-7.471,0.112-12.303,0.671-14.494c0.56-2.192,2.122-3.171,4.691-2.935c1.529,0.001,2.744,0.587,3.646,1.76
		c0.9,1.175,1.361,2.935,1.384,5.279c0.452,5.56-0.79,10.027-3.729,13.406c-2.938,3.38-10.299,7.514-22.078,12.4
		c-9.573,3.729-17.911,9.428-25.012,17.095c-7.103,7.667-10.83,18.057-11.188,31.17v24.802c0.572,16.549,4.622,28.28,12.149,35.192
		c7.527,6.913,15.097,10.265,22.708,10.056c5.879-0.161,10.795-1.432,14.747-3.813s6.855-4.908,8.714-7.584
		c1.013-1.313,1.837-2.205,2.472-2.681c0.637-0.475,1.041-0.698,1.217-0.671c0.327-0.021,0.761,0.188,1.298,0.629
		c0.538,0.439,1.223,1.235,2.054,2.388c2.339,3.903,5.453,6.989,9.343,9.26c3.89,2.27,9.602,3.429,17.135,3.478
		c9.595-0.468,17.472-4.392,23.63-11.771c6.157-7.381,9.343-15.411,9.553-24.091v-20.779c-0.016-0.698-0.238-1.313-0.671-1.845
		c-0.434-0.529-0.991-0.81-1.677-0.838c-3.574,0.057-5.894-0.056-6.953-0.335c-1.063-0.278-1.536-1.062-1.426-2.346v-90.83
		c-0.084-13.49-5.026-24.97-14.831-34.438c-9.804-9.469-23.965-14.411-42.481-14.831c-17.555,0.439-31.128,5.51-40.724,15.208
		c-9.594,9.698-14.453,21.389-14.579,35.066c-0.049,7.618,0.05,12.491,0.293,14.621c0.245,2.13,0.93,3.065,2.054,2.808
		L974.78,221.772L974.78,221.772z M988.188,299.195c-0.058,1.997-0.615,3.449-1.677,4.357c-1.062,0.906-2.291,1.354-3.688,1.341
		c-1.396,0.014-2.625-0.435-3.688-1.341c-1.062-0.908-1.62-2.36-1.676-4.357v-24.802c0.237-3.659,1.438-6.313,3.604-7.96
		c2.163-1.648,3.867-2.458,5.11-2.432c1.34,0.393,2.011,1.285,2.011,2.683v32.511H988.188z"/>
	<path id="path3009" fill="#FFFFFF" d="M1064.465,300.201c0.196,19.788,3.491,33.586,9.888,41.394
		c6.397,7.807,14.72,11.549,24.971,11.229c16.381-0.985,26.353-7.312,29.912-18.979c3.563-11.668,4.986-22.771,4.273-33.308
		c0.188-0.964-0.523-1.55-2.137-1.76c-1.613-0.209-5.258-0.293-10.936-0.251c-0.522-0.028-0.983-0.309-1.383-0.838
		c-0.396-0.531-0.607-1.146-0.628-1.844v-88.148c-0.161-1.284,0.496-2.066,1.969-2.346c1.474-0.279,4.729-0.392,9.762-0.335
		c0.686-0.016,1.243-0.237,1.677-0.672c0.433-0.433,0.655-0.99,0.671-1.676v-48.599c0.174-1.124-0.427-1.81-1.802-2.053
		c-1.377-0.244-4.574-0.343-9.595-0.294c-1.731,0.001-2.626-1.006-2.682-3.017v-28.154c0.069-1.151-0.07-1.947-0.419-2.388
		c-0.35-0.439-1.327-0.648-2.934-0.629h-48.264c-0.685,0.015-1.243,0.237-1.676,0.671c-0.434,0.434-0.656,0.991-0.671,1.676v29.494
		c0.133,1.124-0.3,1.81-1.299,2.054c-0.998,0.244-3.358,0.343-7.08,0.293c-0.35,0.021-0.656,0.23-0.922,0.629
		c-0.267,0.397-0.405,0.858-0.419,1.383v48.934c-0.118,1.124,0.285,1.81,1.215,2.054c0.929,0.244,3.094,0.343,6.494,0.294
		c0.67,0.014,1.173,0.236,1.508,0.67c0.336,0.433,0.503,0.99,0.503,1.676v92.84H1064.465z"/>
	<path id="path3011" fill="#FFFFFF" d="M1141.554,289.14c0.105,19.37,5.007,34.76,14.706,46.169
		c9.698,11.409,23.565,17.247,41.603,17.513c16.005,0.362,29.914-3.548,41.729-11.731c11.815-8.183,18.016-22.818,18.603-43.905
		v-21.45c-0.016-1.013-0.321-1.837-0.922-2.473c-0.602-0.636-1.411-1.04-2.431-1.216l-43.235-2.346
		c-1.007,0.027-1.761,0.308-2.264,0.838s-0.754,1.146-0.754,1.843v20.445c-0.077,2.493-0.678,4.295-1.802,5.404
		s-2.313,1.655-3.563,1.635c-1.543,0.027-2.813-0.531-3.813-1.677c-0.998-1.146-1.515-3.044-1.55-5.697v-52.621
		c0-1.73,0.671-2.625,2.011-2.682h55.973c0.859-0.021,1.571-0.313,2.138-0.879c0.564-0.566,0.858-1.278,0.88-2.138v-20.444
		c-0.118-16.954-5.327-31.395-15.627-43.32c-10.301-11.926-24.978-18.154-44.032-18.686c-14.279-0.209-27.281,3.896-39.005,12.316
		c-11.725,8.421-17.938,22.414-18.645,41.979V289.14L1141.554,289.14z M1197.861,200.657c0.042-2.493,0.545-4.294,1.509-5.404
		c0.963-1.109,2.137-1.654,3.52-1.635c2.583-0.349,4.203,0.938,4.859,3.854c0.656,2.919,0.936,9.565,0.838,19.941
		c0.119,0.805-0.37,1.292-1.467,1.467c-1.096,0.176-3.512,0.244-7.248,0.209c-0.523-0.007-0.984-0.159-1.382-0.461
		c-0.398-0.3-0.607-0.705-0.629-1.215V200.657L1197.861,200.657z"/>
</g>
<text transform="matrix(1 0 0 1 529.3198 430.3689)" fill="#FFFFFF" font-family="'Verdana-Bold'" font-size="64">The Arduino based </text>
<text transform="matrix(1 0 0 1 529.3198 486.0486)" fill="#FFFFFF" font-family="'Verdana-Bold'" font-size="64">environment control</text>
</svg>
